<mxfile host="app.diagrams.net" modified="2020-07-09T15:35:41.898Z" agent="5.0 (X11; Linux x86_64) AppleWebKit/537.36 (KHTML, like Gecko) Chrome/80.0.3987.122 Safari/537.36 OPR/67.0.3575.53" etag="qhwZbPVUvHM05WXodfeq" version="13.3.9" type="github">
  <diagram id="J36BQQnPg78suODzzUQr" name="Page-1">
    <mxGraphModel dx="1062" dy="624" grid="1" gridSize="10" guides="1" tooltips="1" connect="1" arrows="1" fold="1" page="1" pageScale="1" pageWidth="827" pageHeight="1169" math="0" shadow="0">
      <root>
        <mxCell id="0" />
        <mxCell id="1" parent="0" />
        <mxCell id="LYrSy0yfMRbzxB3Prvpc-205" value="Tipo: &lt;br&gt;Encabezado: &#39;ENC&#39;&lt;br&gt;Pie: &#39;PIE&#39;&lt;br&gt;Cuerpo: &#39;CUE&#39;&lt;br&gt;Tabulado: &#39;TAB&#39;." style="shape=note;strokeWidth=2;fontSize=14;size=20;whiteSpace=wrap;html=1;fillColor=#fff2cc;strokeColor=#d6b656;fontColor=#666600;align=left;" vertex="1" parent="1">
          <mxGeometry x="697" y="200" width="130" height="110" as="geometry" />
        </mxCell>
        <mxCell id="LYrSy0yfMRbzxB3Prvpc-206" value="" style="endArrow=none;html=1;rounded=0;entryX=0;entryY=0.5;entryDx=0;entryDy=0;entryPerimeter=0;exitX=1;exitY=0.5;exitDx=0;exitDy=0;edgeStyle=orthogonalEdgeStyle;" edge="1" parent="1" source="LYrSy0yfMRbzxB3Prvpc-193" target="LYrSy0yfMRbzxB3Prvpc-205">
          <mxGeometry relative="1" as="geometry">
            <mxPoint x="610" y="470" as="sourcePoint" />
            <mxPoint x="770" y="470" as="targetPoint" />
          </mxGeometry>
        </mxCell>
        <mxCell id="LYrSy0yfMRbzxB3Prvpc-111" value="t75_notificaciones" style="shape=table;startSize=30;container=1;collapsible=1;childLayout=tableLayout;fixedRows=1;rowLines=0;fontStyle=1;align=center;resizeLast=1;" vertex="1" parent="1">
          <mxGeometry x="180" y="290" width="180" height="220" as="geometry" />
        </mxCell>
        <mxCell id="LYrSy0yfMRbzxB3Prvpc-112" value="" style="shape=partialRectangle;collapsible=0;dropTarget=0;pointerEvents=0;fillColor=none;top=0;left=0;bottom=0;right=0;points=[[0,0.5],[1,0.5]];portConstraint=eastwest;" vertex="1" parent="LYrSy0yfMRbzxB3Prvpc-111">
          <mxGeometry y="30" width="180" height="30" as="geometry" />
        </mxCell>
        <mxCell id="LYrSy0yfMRbzxB3Prvpc-113" value="PK" style="shape=partialRectangle;connectable=0;fillColor=none;top=0;left=0;bottom=0;right=0;fontStyle=1;overflow=hidden;" vertex="1" parent="LYrSy0yfMRbzxB3Prvpc-112">
          <mxGeometry width="30" height="30" as="geometry" />
        </mxCell>
        <mxCell id="LYrSy0yfMRbzxB3Prvpc-114" value="id_registro" style="shape=partialRectangle;connectable=0;fillColor=none;top=0;left=0;bottom=0;right=0;align=left;spacingLeft=6;fontStyle=1;overflow=hidden;" vertex="1" parent="LYrSy0yfMRbzxB3Prvpc-112">
          <mxGeometry x="30" width="150" height="30" as="geometry" />
        </mxCell>
        <mxCell id="LYrSy0yfMRbzxB3Prvpc-115" value="" style="shape=partialRectangle;collapsible=0;dropTarget=0;pointerEvents=0;fillColor=none;top=0;left=0;bottom=0;right=0;points=[[0,0.5],[1,0.5]];portConstraint=eastwest;" vertex="1" parent="LYrSy0yfMRbzxB3Prvpc-111">
          <mxGeometry y="60" width="180" height="30" as="geometry" />
        </mxCell>
        <mxCell id="LYrSy0yfMRbzxB3Prvpc-116" value="FK" style="shape=partialRectangle;connectable=0;fillColor=none;top=0;left=0;bottom=0;right=0;editable=1;overflow=hidden;fontStyle=1" vertex="1" parent="LYrSy0yfMRbzxB3Prvpc-115">
          <mxGeometry width="30" height="30" as="geometry" />
        </mxCell>
        <mxCell id="LYrSy0yfMRbzxB3Prvpc-117" value="encabezado" style="shape=partialRectangle;connectable=0;fillColor=none;top=0;left=0;bottom=0;right=0;align=left;spacingLeft=6;overflow=hidden;fontStyle=1" vertex="1" parent="LYrSy0yfMRbzxB3Prvpc-115">
          <mxGeometry x="30" width="150" height="30" as="geometry" />
        </mxCell>
        <mxCell id="LYrSy0yfMRbzxB3Prvpc-118" value="" style="shape=partialRectangle;collapsible=0;dropTarget=0;pointerEvents=0;fillColor=none;top=0;left=0;bottom=0;right=0;points=[[0,0.5],[1,0.5]];portConstraint=eastwest;" vertex="1" parent="LYrSy0yfMRbzxB3Prvpc-111">
          <mxGeometry y="90" width="180" height="30" as="geometry" />
        </mxCell>
        <mxCell id="LYrSy0yfMRbzxB3Prvpc-119" value="FK" style="shape=partialRectangle;connectable=0;fillColor=none;top=0;left=0;bottom=0;right=0;editable=1;overflow=hidden;fontStyle=1" vertex="1" parent="LYrSy0yfMRbzxB3Prvpc-118">
          <mxGeometry width="30" height="30" as="geometry" />
        </mxCell>
        <mxCell id="LYrSy0yfMRbzxB3Prvpc-120" value="pie" style="shape=partialRectangle;connectable=0;fillColor=none;top=0;left=0;bottom=0;right=0;align=left;spacingLeft=6;overflow=hidden;fontStyle=1" vertex="1" parent="LYrSy0yfMRbzxB3Prvpc-118">
          <mxGeometry x="30" width="150" height="30" as="geometry" />
        </mxCell>
        <mxCell id="LYrSy0yfMRbzxB3Prvpc-121" value="" style="shape=partialRectangle;collapsible=0;dropTarget=0;pointerEvents=0;fillColor=none;top=0;left=0;bottom=0;right=0;points=[[0,0.5],[1,0.5]];portConstraint=eastwest;fontStyle=1" vertex="1" parent="LYrSy0yfMRbzxB3Prvpc-111">
          <mxGeometry y="120" width="180" height="30" as="geometry" />
        </mxCell>
        <mxCell id="LYrSy0yfMRbzxB3Prvpc-122" value="FK" style="shape=partialRectangle;connectable=0;fillColor=none;top=0;left=0;bottom=1;right=0;editable=1;overflow=hidden;fontStyle=1" vertex="1" parent="LYrSy0yfMRbzxB3Prvpc-121">
          <mxGeometry width="30" height="30" as="geometry" />
        </mxCell>
        <mxCell id="LYrSy0yfMRbzxB3Prvpc-123" value="cuerpo" style="shape=partialRectangle;connectable=0;fillColor=none;top=0;left=0;bottom=1;right=0;align=left;spacingLeft=6;overflow=hidden;fontStyle=1" vertex="1" parent="LYrSy0yfMRbzxB3Prvpc-121">
          <mxGeometry x="30" width="150" height="30" as="geometry" />
        </mxCell>
        <mxCell id="LYrSy0yfMRbzxB3Prvpc-183" value="" style="shape=partialRectangle;collapsible=0;dropTarget=0;pointerEvents=0;fillColor=none;top=0;left=0;bottom=0;right=0;points=[[0,0.5],[1,0.5]];portConstraint=eastwest;" vertex="1" parent="LYrSy0yfMRbzxB3Prvpc-111">
          <mxGeometry y="150" width="180" height="30" as="geometry" />
        </mxCell>
        <mxCell id="LYrSy0yfMRbzxB3Prvpc-184" value="" style="shape=partialRectangle;connectable=0;fillColor=none;top=0;left=0;bottom=0;right=0;editable=1;overflow=hidden;" vertex="1" parent="LYrSy0yfMRbzxB3Prvpc-183">
          <mxGeometry width="30" height="30" as="geometry" />
        </mxCell>
        <mxCell id="LYrSy0yfMRbzxB3Prvpc-185" value="disparar" style="shape=partialRectangle;connectable=0;fillColor=none;top=0;left=0;bottom=0;right=0;align=left;spacingLeft=6;overflow=hidden;" vertex="1" parent="LYrSy0yfMRbzxB3Prvpc-183">
          <mxGeometry x="30" width="150" height="30" as="geometry" />
        </mxCell>
        <mxCell id="LYrSy0yfMRbzxB3Prvpc-207" value="" style="shape=partialRectangle;collapsible=0;dropTarget=0;pointerEvents=0;fillColor=none;top=0;left=0;bottom=0;right=0;points=[[0,0.5],[1,0.5]];portConstraint=eastwest;" vertex="1" parent="LYrSy0yfMRbzxB3Prvpc-111">
          <mxGeometry y="180" width="180" height="30" as="geometry" />
        </mxCell>
        <mxCell id="LYrSy0yfMRbzxB3Prvpc-208" value="" style="shape=partialRectangle;connectable=0;fillColor=none;top=0;left=0;bottom=0;right=0;editable=1;overflow=hidden;" vertex="1" parent="LYrSy0yfMRbzxB3Prvpc-207">
          <mxGeometry width="30" height="30" as="geometry" />
        </mxCell>
        <mxCell id="LYrSy0yfMRbzxB3Prvpc-209" value="estado" style="shape=partialRectangle;connectable=0;fillColor=none;top=0;left=0;bottom=0;right=0;align=left;spacingLeft=6;overflow=hidden;" vertex="1" parent="LYrSy0yfMRbzxB3Prvpc-207">
          <mxGeometry x="30" width="150" height="30" as="geometry" />
        </mxCell>
        <mxCell id="LYrSy0yfMRbzxB3Prvpc-189" value="t75_componentes" style="shape=table;startSize=30;container=1;collapsible=1;childLayout=tableLayout;fixedRows=1;rowLines=0;fontStyle=1;align=center;resizeLast=1;" vertex="1" parent="1">
          <mxGeometry x="440" y="290" width="180" height="190" as="geometry" />
        </mxCell>
        <mxCell id="LYrSy0yfMRbzxB3Prvpc-190" value="" style="shape=partialRectangle;collapsible=0;dropTarget=0;pointerEvents=0;fillColor=none;top=0;left=0;bottom=1;right=0;points=[[0,0.5],[1,0.5]];portConstraint=eastwest;" vertex="1" parent="LYrSy0yfMRbzxB3Prvpc-189">
          <mxGeometry y="30" width="180" height="30" as="geometry" />
        </mxCell>
        <mxCell id="LYrSy0yfMRbzxB3Prvpc-191" value="PK" style="shape=partialRectangle;connectable=0;fillColor=none;top=0;left=0;bottom=0;right=0;fontStyle=1;overflow=hidden;" vertex="1" parent="LYrSy0yfMRbzxB3Prvpc-190">
          <mxGeometry width="30" height="30" as="geometry" />
        </mxCell>
        <mxCell id="LYrSy0yfMRbzxB3Prvpc-192" value="id_registro" style="shape=partialRectangle;connectable=0;fillColor=none;top=0;left=0;bottom=0;right=0;align=left;spacingLeft=6;fontStyle=1;overflow=hidden;" vertex="1" parent="LYrSy0yfMRbzxB3Prvpc-190">
          <mxGeometry x="30" width="150" height="30" as="geometry" />
        </mxCell>
        <mxCell id="LYrSy0yfMRbzxB3Prvpc-193" value="" style="shape=partialRectangle;collapsible=0;dropTarget=0;pointerEvents=0;fillColor=none;top=0;left=0;bottom=0;right=0;points=[[0,0.5],[1,0.5]];portConstraint=eastwest;" vertex="1" parent="LYrSy0yfMRbzxB3Prvpc-189">
          <mxGeometry y="60" width="180" height="30" as="geometry" />
        </mxCell>
        <mxCell id="LYrSy0yfMRbzxB3Prvpc-194" value="" style="shape=partialRectangle;connectable=0;fillColor=none;top=0;left=0;bottom=0;right=0;editable=1;overflow=hidden;" vertex="1" parent="LYrSy0yfMRbzxB3Prvpc-193">
          <mxGeometry width="30" height="30" as="geometry" />
        </mxCell>
        <mxCell id="LYrSy0yfMRbzxB3Prvpc-195" value="tipo" style="shape=partialRectangle;connectable=0;fillColor=none;top=0;left=0;bottom=0;right=0;align=left;spacingLeft=6;overflow=hidden;" vertex="1" parent="LYrSy0yfMRbzxB3Prvpc-193">
          <mxGeometry x="30" width="150" height="30" as="geometry" />
        </mxCell>
        <mxCell id="LYrSy0yfMRbzxB3Prvpc-196" value="" style="shape=partialRectangle;collapsible=0;dropTarget=0;pointerEvents=0;fillColor=none;top=0;left=0;bottom=0;right=0;points=[[0,0.5],[1,0.5]];portConstraint=eastwest;" vertex="1" parent="LYrSy0yfMRbzxB3Prvpc-189">
          <mxGeometry y="90" width="180" height="30" as="geometry" />
        </mxCell>
        <mxCell id="LYrSy0yfMRbzxB3Prvpc-197" value="" style="shape=partialRectangle;connectable=0;fillColor=none;top=0;left=0;bottom=0;right=0;editable=1;overflow=hidden;" vertex="1" parent="LYrSy0yfMRbzxB3Prvpc-196">
          <mxGeometry width="30" height="30" as="geometry" />
        </mxCell>
        <mxCell id="LYrSy0yfMRbzxB3Prvpc-198" value="cuerpo" style="shape=partialRectangle;connectable=0;fillColor=none;top=0;left=0;bottom=0;right=0;align=left;spacingLeft=6;overflow=hidden;" vertex="1" parent="LYrSy0yfMRbzxB3Prvpc-196">
          <mxGeometry x="30" width="150" height="30" as="geometry" />
        </mxCell>
        <mxCell id="LYrSy0yfMRbzxB3Prvpc-199" value="" style="shape=partialRectangle;collapsible=0;dropTarget=0;pointerEvents=0;fillColor=none;top=0;left=0;bottom=0;right=0;points=[[0,0.5],[1,0.5]];portConstraint=eastwest;" vertex="1" parent="LYrSy0yfMRbzxB3Prvpc-189">
          <mxGeometry y="120" width="180" height="30" as="geometry" />
        </mxCell>
        <mxCell id="LYrSy0yfMRbzxB3Prvpc-200" value="" style="shape=partialRectangle;connectable=0;fillColor=none;top=0;left=0;bottom=0;right=0;editable=1;overflow=hidden;" vertex="1" parent="LYrSy0yfMRbzxB3Prvpc-199">
          <mxGeometry width="30" height="30" as="geometry" />
        </mxCell>
        <mxCell id="LYrSy0yfMRbzxB3Prvpc-201" value="query" style="shape=partialRectangle;connectable=0;fillColor=none;top=0;left=0;bottom=0;right=0;align=left;spacingLeft=6;overflow=hidden;" vertex="1" parent="LYrSy0yfMRbzxB3Prvpc-199">
          <mxGeometry x="30" width="150" height="30" as="geometry" />
        </mxCell>
        <mxCell id="LYrSy0yfMRbzxB3Prvpc-202" value="" style="shape=partialRectangle;collapsible=0;dropTarget=0;pointerEvents=0;fillColor=none;top=0;left=0;bottom=0;right=0;points=[[0,0.5],[1,0.5]];portConstraint=eastwest;" vertex="1" parent="LYrSy0yfMRbzxB3Prvpc-189">
          <mxGeometry y="150" width="180" height="30" as="geometry" />
        </mxCell>
        <mxCell id="LYrSy0yfMRbzxB3Prvpc-203" value="" style="shape=partialRectangle;connectable=0;fillColor=none;top=0;left=0;bottom=0;right=0;editable=1;overflow=hidden;" vertex="1" parent="LYrSy0yfMRbzxB3Prvpc-202">
          <mxGeometry width="30" height="30" as="geometry" />
        </mxCell>
        <mxCell id="LYrSy0yfMRbzxB3Prvpc-204" value="atributos" style="shape=partialRectangle;connectable=0;fillColor=none;top=0;left=0;bottom=0;right=0;align=left;spacingLeft=6;overflow=hidden;" vertex="1" parent="LYrSy0yfMRbzxB3Prvpc-202">
          <mxGeometry x="30" width="150" height="30" as="geometry" />
        </mxCell>
        <mxCell id="LYrSy0yfMRbzxB3Prvpc-214" value="Estado: &lt;br&gt;Por disparar: 0&lt;br&gt;Disparada: 1&lt;br&gt;Deshabilitada: 2." style="shape=note;strokeWidth=2;fontSize=14;size=20;whiteSpace=wrap;html=1;fillColor=#fff2cc;strokeColor=#d6b656;fontColor=#666600;align=left;" vertex="1" parent="1">
          <mxGeometry x="10" y="210" width="130" height="110" as="geometry" />
        </mxCell>
        <mxCell id="LYrSy0yfMRbzxB3Prvpc-215" value="" style="endArrow=none;html=1;rounded=0;entryX=0.5;entryY=1;entryDx=0;entryDy=0;entryPerimeter=0;exitX=0;exitY=0.5;exitDx=0;exitDy=0;" edge="1" parent="1" target="LYrSy0yfMRbzxB3Prvpc-214" source="LYrSy0yfMRbzxB3Prvpc-207">
          <mxGeometry relative="1" as="geometry">
            <mxPoint x="-20" y="375" as="sourcePoint" />
            <mxPoint x="130" y="480" as="targetPoint" />
          </mxGeometry>
        </mxCell>
        <mxCell id="LYrSy0yfMRbzxB3Prvpc-216" value="Atributos:&lt;br&gt;Arreglo Json con el nombre de los atributos a reemplazar en el cuerpo del componente." style="shape=note;strokeWidth=2;fontSize=14;size=20;whiteSpace=wrap;html=1;fillColor=#fff2cc;strokeColor=#d6b656;fontColor=#666600;align=left;" vertex="1" parent="1">
          <mxGeometry x="854" y="390" width="140" height="110" as="geometry" />
        </mxCell>
        <mxCell id="LYrSy0yfMRbzxB3Prvpc-217" value="" style="endArrow=none;html=1;rounded=0;entryX=0;entryY=0.5;entryDx=0;entryDy=0;entryPerimeter=0;exitX=1;exitY=0.5;exitDx=0;exitDy=0;edgeStyle=orthogonalEdgeStyle;" edge="1" parent="1" source="LYrSy0yfMRbzxB3Prvpc-202" target="LYrSy0yfMRbzxB3Prvpc-216">
          <mxGeometry relative="1" as="geometry">
            <mxPoint x="530" y="615" as="sourcePoint" />
            <mxPoint x="635" y="570" as="targetPoint" />
            <Array as="points">
              <mxPoint x="660" y="455" />
              <mxPoint x="660" y="600" />
              <mxPoint x="850" y="600" />
              <mxPoint x="850" y="445" />
            </Array>
          </mxGeometry>
        </mxCell>
        <mxCell id="LYrSy0yfMRbzxB3Prvpc-218" value="Ej: [&quot;NOMBRE&quot;, &quot;EDAD&quot;, &lt;br&gt;&quot;CONDICION&quot;]" style="text;html=1;align=left;verticalAlign=middle;resizable=0;points=[];autosize=1;" vertex="1" parent="1">
          <mxGeometry x="854" y="503" width="150" height="30" as="geometry" />
        </mxCell>
        <mxCell id="LYrSy0yfMRbzxB3Prvpc-220" value="Cuerpo:&lt;br&gt;Contenido del la notificación, con las variables a reemplazar." style="shape=note;strokeWidth=2;fontSize=14;size=20;whiteSpace=wrap;html=1;fillColor=#fff2cc;strokeColor=#d6b656;fontColor=#666600;align=left;" vertex="1" parent="1">
          <mxGeometry x="850" y="200" width="140" height="110" as="geometry" />
        </mxCell>
        <mxCell id="LYrSy0yfMRbzxB3Prvpc-221" value="Ej: &quot;Bienvenido {NOMBRE}, &lt;br&gt;su edad es {EDAD} y su &lt;br&gt;condición es de &lt;br&gt;{CONDICION}&quot;" style="text;html=1;align=left;verticalAlign=middle;resizable=0;points=[];autosize=1;" vertex="1" parent="1">
          <mxGeometry x="850" y="310" width="160" height="60" as="geometry" />
        </mxCell>
        <mxCell id="LYrSy0yfMRbzxB3Prvpc-222" value="" style="endArrow=none;html=1;rounded=0;entryX=0;entryY=0.5;entryDx=0;entryDy=0;entryPerimeter=0;exitX=1;exitY=0.5;exitDx=0;exitDy=0;edgeStyle=orthogonalEdgeStyle;" edge="1" parent="1" source="LYrSy0yfMRbzxB3Prvpc-196" target="LYrSy0yfMRbzxB3Prvpc-220">
          <mxGeometry relative="1" as="geometry">
            <mxPoint x="630" y="375" as="sourcePoint" />
            <mxPoint x="707" y="265" as="targetPoint" />
            <Array as="points">
              <mxPoint x="680" y="395" />
              <mxPoint x="680" y="170" />
              <mxPoint x="840" y="170" />
              <mxPoint x="840" y="255" />
            </Array>
          </mxGeometry>
        </mxCell>
        <mxCell id="LYrSy0yfMRbzxB3Prvpc-224" value="Query:&lt;br&gt;Sentencia SQL para seleccionar los datos en cuestión y las variables a reemplazar.." style="shape=note;strokeWidth=2;fontSize=14;size=20;whiteSpace=wrap;html=1;fillColor=#fff2cc;strokeColor=#d6b656;fontColor=#666600;align=left;" vertex="1" parent="1">
          <mxGeometry x="697" y="390" width="133" height="110" as="geometry" />
        </mxCell>
        <mxCell id="LYrSy0yfMRbzxB3Prvpc-225" value="" style="endArrow=none;html=1;rounded=0;entryX=0;entryY=0.5;entryDx=0;entryDy=0;entryPerimeter=0;exitX=1;exitY=0.5;exitDx=0;exitDy=0;edgeStyle=orthogonalEdgeStyle;" edge="1" parent="1" target="LYrSy0yfMRbzxB3Prvpc-224" source="LYrSy0yfMRbzxB3Prvpc-199">
          <mxGeometry relative="1" as="geometry">
            <mxPoint x="860" y="505" as="sourcePoint" />
            <mxPoint x="947" y="375" as="targetPoint" />
            <Array as="points">
              <mxPoint x="680" y="425" />
              <mxPoint x="680" y="445" />
            </Array>
          </mxGeometry>
        </mxCell>
        <mxCell id="LYrSy0yfMRbzxB3Prvpc-226" value="Ej: &quot;Select nombre, edad, &lt;br&gt;condicion from tabla where &lt;br&gt;id_registro =&lt;br&gt;{ID_DOCUMENTO} and&lt;br&gt;estado =&#39;{ESTADO_DOC}&#39;&lt;br&gt;&quot;" style="text;html=1;align=left;verticalAlign=middle;resizable=0;points=[];autosize=1;" vertex="1" parent="1">
          <mxGeometry x="697" y="502" width="160" height="90" as="geometry" />
        </mxCell>
      </root>
    </mxGraphModel>
  </diagram>
</mxfile>
